<svg width="29" height="52" viewBox="0 0 29 52" fill="none" xmlns="http://www.w3.org/2000/svg">
    <path d="M27.0527 6.61328C27.123 6.75391 27.1582 7.24609 27.1582 8.08984C27.1934 8.93359 27.1934 9.95313 27.1582 11.1484C27.1582 12.3437 27.123 13.627 27.0527 14.998C26.9824 16.334 26.8945 17.5996 26.7891 18.7949C26.7188 19.4629 26.5957 20.4648 26.4199 21.8008C26.2793 23.1367 26.1035 24.6133 25.8926 26.2305C25.6816 27.8477 25.4531 29.5176 25.207 31.2402C24.9961 32.9277 24.7852 34.4922 24.5742 35.9336C24.3633 37.3398 24.1699 38.5176 23.9941 39.4668C23.8535 40.416 23.748 40.9258 23.6777 40.9961C23.5371 41.1016 23.3086 41.3652 22.9922 41.7871C22.6758 42.1738 22.3242 42.5781 21.9375 43C21.5859 43.3867 21.252 43.7031 20.9355 43.9492C20.6191 44.1953 20.4082 44.2305 20.3027 44.0547C20.2324 43.7031 20.1973 42.6133 20.1973 40.7852C20.1973 40.0117 20.1973 39.0449 20.1973 37.8848C20.2324 36.6895 20.2676 35.248 20.3027 33.5605C20.373 31.873 20.4609 29.9043 20.5664 27.6543C20.6719 25.4043 20.7949 22.8027 20.9355 19.8496C20.2324 22.2402 19.5996 24.3496 19.0371 26.1777C18.5098 28.0059 18.0352 29.6055 17.6133 30.9766C17.2266 32.3125 16.8926 33.4551 16.6113 34.4043C16.3301 35.3184 16.084 36.0742 15.873 36.6719C15.416 38.0781 15.1172 38.9043 14.9766 39.1504C14.8359 39.1855 14.6074 39.0801 14.291 38.834C14.0098 38.5879 13.6758 38.2363 13.2891 37.7793C12.9375 37.2871 12.5684 36.707 12.1816 36.0391C11.8301 35.3711 11.5312 34.6328 11.2852 33.8242C11.0391 33.0859 10.7227 32.1016 10.3359 30.8711C9.98438 29.8164 9.52734 28.4453 8.96484 26.7578C8.40234 25.0352 7.7168 22.8906 6.9082 20.3242C7.11914 23.207 7.29492 25.7383 7.43555 27.918C7.57617 30.0977 7.68164 31.9961 7.75195 33.6133C7.85742 35.2305 7.92773 36.6016 7.96289 37.7266C8.0332 38.8164 8.06836 39.7305 8.06836 40.4688C8.10352 42.1562 8.05078 43.123 7.91016 43.3691C7.55859 43.3691 7.17188 43.2109 6.75 42.8945C6.36328 42.543 5.97656 42.1387 5.58984 41.6816C5.23828 41.1895 4.92188 40.7148 4.64062 40.2578C4.39453 39.8008 4.25391 39.4668 4.21875 39.2559C4.18359 39.1152 4.07812 38.4648 3.90234 37.3047C3.72656 36.1445 3.51563 34.668 3.26953 32.875C3.05859 31.0469 2.8125 29.0078 2.53125 26.7578C2.28516 24.4727 2.03906 22.1523 1.79297 19.7969C1.58203 17.4414 1.40625 15.1562 1.26562 12.9414C1.125 10.6914 1.05469 8.6875 1.05469 6.92969C1.05469 6.64844 1.40625 6.2793 2.10938 5.82227C2.8125 5.33008 3.60352 4.87305 4.48242 4.45117C5.39648 3.99414 6.24023 3.60742 7.01367 3.29102C7.78711 2.93945 8.26172 2.76367 8.4375 2.76367C8.57812 2.76367 8.71875 3.16797 8.85938 3.97656C9.03516 4.78516 9.22852 5.80469 9.43945 7.03516C9.65039 8.26563 9.87891 9.63672 10.125 11.1484C10.3711 12.6602 10.6523 14.1016 10.9688 15.4727C11.2148 16.8789 11.5137 18.3379 11.8652 19.8496C12.1465 21.1504 12.4629 22.5918 12.8145 24.1738C13.2012 25.7207 13.623 27.2324 14.0801 28.709C14.5723 26.5645 15.0117 24.6309 15.3984 22.9082C15.8203 21.1504 16.1895 19.6562 16.5059 18.4258C16.8926 16.9844 17.2266 15.7012 17.5078 14.5762C18.1406 11.834 18.7559 9.67188 19.3535 8.08984C19.9863 6.50781 20.3906 5.57617 20.5664 5.29492C20.6719 5.1543 21.041 5.11914 21.6738 5.18945C22.3418 5.25977 23.0625 5.38281 23.8359 5.55859C24.6094 5.69922 25.3125 5.875 25.9453 6.08594C26.6133 6.29688 26.9824 6.47266 27.0527 6.61328Z" fill="url(#paint0_linear_5_68)"/>
    <defs>
    <linearGradient id="paint0_linear_5_68" x1="14.5" y1="-9" x2="14.5" y2="57" gradientUnits="userSpaceOnUse">
    <stop stop-color="#3331A2"/>
    <stop offset="1" stop-color="#BFBEFB"/>
    </linearGradient>
    </defs>
    </svg>
    